<?xml version="1.0" standalone="no"?>
<!DOCTYPE svg PUBLIC "-//W3C//DTD SVG 20010904//EN"
 "http://www.w3.org/TR/2001/REC-SVG-20010904/DTD/svg10.dtd">
<svg version="1.0" xmlns="http://www.w3.org/2000/svg"
 width="500.000000pt" height="500.000000pt" viewBox="0 0 500.000000 500.000000"
 preserveAspectRatio="xMidYMid meet">

<g transform="translate(0.000000,500.000000) scale(0.100000,-0.100000)"
fill="#479dff" stroke="none">
<path d="M1010 4975 c-383 -85 -676 -302 -856 -631 -59 -108 -99 -221 -130
-361 -23 -109 -24 -126 -24 -508 l0 -395 551 0 550 0 57 54 c31 30 96 87 143
127 48 41 141 122 207 182 67 59 124 107 127 107 3 0 5 -73 5 -163 l0 -163
-74 -65 c-41 -35 -72 -67 -69 -71 2 -5 262 -8 578 -8 l574 0 87 163 c48 89
106 196 128 237 l42 75 167 3 c146 2 167 1 167 -13 0 -9 -22 -57 -49 -108 -26
-51 -78 -149 -115 -218 -36 -69 -66 -129 -66 -133 0 -3 110 -6 245 -6 135 0
245 3 245 7 0 3 -29 37 -65 74 l-65 67 0 130 c0 72 4 133 9 136 5 3 67 -38
137 -92 71 -54 195 -148 277 -210 l147 -112 530 0 530 0 0 383 c0 210 -5 411
-10 447 -67 429 -317 775 -695 963 -85 42 -166 69 -307 102 l-108 25 -1382 -1
-1383 -1 -105 -23z"/>
<path d="M1956 2738 c-160 -426 -213 -574 -207 -581 4 -4 48 -7 97 -5 l89 3
17 50 16 50 102 3 c112 3 124 -2 134 -50 11 -53 20 -58 117 -58 48 0 90 4 93
9 3 5 -46 145 -108 312 l-114 304 -110 3 -110 3 -16 -43z m158 -232 c37 -118
37 -116 -33 -116 -33 0 -62 4 -65 9 -3 4 6 44 20 87 15 43 28 85 30 92 8 29
23 7 48 -72z"/>
<path d="M2492 2468 l3 -313 75 0 75 0 3 208 c1 114 6 207 10 207 4 0 29 -87
56 -192 27 -106 52 -201 58 -210 7 -14 22 -18 74 -18 78 0 67 -18 129 224 25
99 47 182 50 184 11 12 15 -35 17 -213 l3 -190 75 0 75 0 3 313 2 312 -128 0
-129 0 -15 -57 c-9 -32 -29 -111 -44 -175 -16 -65 -34 -118 -40 -118 -5 0 -25
64 -43 143 -18 78 -39 157 -47 175 l-13 32 -126 0 -125 0 2 -312z"/>
<path d="M0 1522 c0 -420 2 -443 54 -627 64 -229 215 -450 428 -627 96 -80
298 -185 418 -218 183 -50 172 -50 1600 -50 1428 0 1418 0 1600 50 96 27 298
125 375 183 87 66 220 200 288 292 105 142 171 292 212 486 24 116 25 130 25
514 l0 395 -532 0 -533 0 -110 -86 c-60 -47 -150 -116 -200 -154 -49 -37 -99
-77 -110 -87 -29 -27 -131 -103 -138 -103 -4 0 -7 69 -7 154 l0 154 71 61 70
61 -564 0 -565 0 -83 -147 c-100 -177 -98 -174 -136 -243 l-30 -55 -173 -3
c-96 -1 -177 1 -182 6 -5 5 41 99 107 220 63 116 115 213 115 216 0 3 -117 6
-260 6 -167 0 -260 -4 -260 -10 0 -5 3 -10 8 -10 4 0 21 -13 38 -28 17 -15 48
-40 68 -57 l36 -30 0 -132 c0 -72 -4 -134 -9 -137 -4 -3 -132 87 -284 199
l-275 205 -531 0 -531 0 0 -398z"/>
</g>
</svg>
